<svg id="Layer_1" enable-background="new 0 0 512 512" height="512" viewBox="0 0 512 512" width="512" xmlns="http://www.w3.org/2000/svg"><g><circle cx="256" cy="256" fill="#ff7828" r="256"/><path d="m256 512v-512c141.159 0 256 114.841 256 256s-114.841 256-256 256z" fill="#ff5000"/><circle cx="272.067" cy="87.3" fill="#ffbe00" r="15"/><path d="m213.268 146.114c32.384 32.385 85.084 32.435 117.525.072 2.762-2.721 4.474-6.504 4.474-10.687 0-8.284-6.716-15-15-15-4.144 0-7.898 1.683-10.615 4.401-20.725 20.724-54.446 20.726-75.17 0l-16.076-16.075c-5.858-5.857-15.356-5.857-21.213.002-5.857 5.858-5.857 15.355.001 21.213z" fill="#fcd956"/><path d="m360.433 176.733c-39.278 0-71.233 31.955-71.233 71.233v11.895c-14.875-1.445-29.88 3.729-40.838 14.696l-3.067 3.065c-1.873-2.262-3.888-4.438-6.054-6.506-2.479-2.365-6.002-5.791-9.368-9.081 5.678-8.67 8.994-19.02 8.994-30.136 0-30.419-24.748-55.167-55.167-55.167h-45.525c-8.284 0-15 6.716-15 15s6.716 15 15 15h45.525c13.877 0 25.167 11.29 25.167 25.167s-11.29 25.166-25.167 25.166h-8.034c-8.284 0-15 6.716-15 15s6.716 15 15 15h8.034c8.394 0 16.351-1.893 23.481-5.26 3.893 3.812 8.315 8.122 11.348 11.014 13.237 12.639 17.393 31.776 10.589 48.757-6.803 16.982-23.022 27.956-41.353 27.956-42.696 0-77.431-34.735-77.431-77.432v-14.677c0-8.284-6.716-15-15-15s-15 6.716-15 15v14.677c0 59.238 48.193 107.432 107.463 107.432 30.631 0 57.782-18.371 69.169-46.799 6.185-15.435 6.949-31.932 2.818-47.177l9.791-9.786c5.996-6 14.938-7.778 22.781-4.528 15.075 6.243 12.911 22.619 12.911 23.665 0 34.915 28.235 63.2 63.2 63.2 34.849 0 63.2-28.352 63.2-63.2v-66.941c0-39.253-31.743-71.233-71.234-71.233zm41.234 138.175c0 18.307-14.894 33.2-33.2 33.2-18.353 0-33.2-14.836-33.2-33.2 0-5.835 1.148-25.388-16.066-41.496v-25.445c0-22.736 18.497-41.233 41.233-41.233 22.349 0 41.233 18.067 41.233 41.233z" fill="#fcd956"/><g fill="#ffbe00"><path d="m330.793 146.187c2.762-2.721 4.474-6.504 4.474-10.687 0-8.284-6.716-15-15-15-4.144 0-7.898 1.683-10.615 4.401-14.493 14.492-35.337 18.836-53.652 13.06v30.912c26.234 5.128 54.484-2.426 74.793-22.686z"/><path d="m259.784 305.558 9.791-9.786c5.996-6 14.938-7.778 22.781-4.528 15.075 6.243 12.911 22.619 12.911 23.665 0 34.915 28.235 63.2 63.2 63.2 34.849 0 63.2-28.352 63.2-63.2v-66.941c0-39.254-31.742-71.233-71.233-71.233-39.278 0-71.233 31.955-71.233 71.233v11.895c-11.661-1.133-23.392 1.82-33.2 8.424v86.735c.332-.756.657-1.516.966-2.286 6.184-15.437 6.948-31.934 2.817-47.178zm59.416-57.591c0-22.736 18.497-41.233 41.233-41.233 22.349 0 41.233 18.067 41.233 41.233v66.941c0 18.307-14.894 33.2-33.2 33.2-18.353 0-33.2-14.836-33.2-33.2 0-5.834 1.148-25.388-16.066-41.496z"/></g></g></svg>